<?xml version="1.0" encoding="utf-8"?>
<!-- Generator: Adobe Illustrator 27.8.1, SVG Export Plug-In . SVG Version: 6.00 Build 0)  -->
<svg version="1.1" id="Camada_1" xmlns="http://www.w3.org/2000/svg" xmlns:xlink="http://www.w3.org/1999/xlink" x="0px" y="0px"
	 viewBox="0 0 1920 1080" style="enable-background:new 0 0 1920 1080;" xml:space="preserve">
<style type="text/css">
	.st0{stroke:#000000;stroke-width:5;stroke-miterlimit:10;}
	.st1{fill:#E8E8E8;stroke:#000000;stroke-width:5;stroke-miterlimit:10;}
	.st2{fill:#E8E8E8;}
	.st3{fill:#FFFFFF;stroke:#000000;stroke-width:5;stroke-miterlimit:10;}
	.st4{fill:#7D4824;stroke:#000000;stroke-width:5;stroke-miterlimit:10;}
	.st5{fill:none;stroke:#000000;stroke-width:5;stroke-miterlimit:10;}
	.st6{fill:#3F3F3F;}
	.st7{fill:#754322;stroke:#000000;stroke-width:5;stroke-miterlimit:10;}
	.st8{fill:#F2F2F2;stroke:#000000;stroke-width:5;stroke-miterlimit:10;}
	.st9{fill:#ADADAD;stroke:#000000;stroke-width:5;stroke-miterlimit:10;}
	.st10{fill:#E3E3E3;stroke:#000000;stroke-width:5;stroke-miterlimit:10;}
</style>
<path class="st0" d="M533.7,863.1c0,0,76.88,37.66,146.74,11.43s-104.92-67.01-104.92-67.01L533.7,863.1"/>
<rect x="954.95" y="680.78" class="st1" width="186.99" height="194.78"/>
<path class="st1" d="M1147.28,782.07c1.03,17.59,1.46,35.24,1.14,52.86c-0.39,21.62,1.56,42.4-14.32,59.53
	c-8.98,9.69-21.3,15.77-34.03,19.3c-22.33,6.18-47.59,8.56-69.55-0.06c-11.23-4.4-19.78-13.95-25.62-24.33"/>
<rect x="873.66" y="807.81" class="st2" width="62.33" height="48.19"/>
<path class="st1" d="M871.66,852.5c0,0,1.87,56.83,129.65,37.74c43.24-10.13,57.34-28.83,57.34-28.83"/>
<rect x="824.45" y="551.52" class="st1" width="174.5" height="133.27"/>
<path class="st1" d="M836.71,551.61c0,0-193.15-4.84-269.5,53.86c-53.43,41.07-78.76,119.27-75.8,184.85
	c1.6,35.34,13.51,73.89,53.58,76.94c5.12,0.39,10.35,0.36,15.4-0.68c5.75-1.19,11.46-3.94,14.51-9.18c1.52-2.61,2.35-5.73,2.22-8.75
	c-0.01-0.2-0.02-0.4-0.04-0.59c0.6,6.05,26.44,18.83,30.91,21.15c17.5,9.09,35.68,17.35,55.07,21.75
	c39.98,9.08,82.3,5.03,121.5-5.86c35.4-9.84,69.04-24.87,102.31-40.25c16.69-7.72,33.48-15.23,50.16-22.98
	c15.67-7.29,29.63-17.15,46.29-22.98c17.7-6.19,36.51-12.75,55.29-14.49c3.12-0.29,6.53-0.59,9.6,0.3
	c15.92,4.62,33.64-31.31,16.1-35.84"/>
<path class="st1" d="M580.19,853.49c0,0-61.08-91.81-27.81-137.78"/>
<g>
	<path class="st3" d="M1048.19,784.67c-3.06-0.89-6.47-0.59-9.6-0.3c-18.78,1.75-37.59,8.3-55.29,14.49
		c-13.07,4.57-24.97,10.83-36.84,17.31c-8.04,4.39-16.06,8.89-24.43,13.05c-9.08,4.51-18.22,8.87-27.44,13.1
		c0.01,0,25.56,12.99,57.75,13.08c14.74,0.04,30.88-2.62,46.59-10.48c48.82-24.41,41.71-39.61,55.74-59.47
		C1051.4,787.67,1051.75,785.7,1048.19,784.67z"/>
</g>
<line class="st3" x1="937.95" y1="819.74" x2="957.83" y2="855.29"/>
<line class="st3" x1="990.28" y1="797.26" x2="1013.28" y2="838.4"/>
<path class="st4" d="M831.02,549.29c0,0,94.32,35.92,106.79,87.34c12.47,51.42,132.45,112.2,180.76,112.2
	c48.31,0,21.04-200.24,21.04-200.24l-64.67-8.18l-87.26,72.85c0,0-58.66-59.47-67.79-71.29
	C903.53,544.3,831.02,549.29,831.02,549.29z"/>
<path class="st0" d="M505.83,724.49c0.19,0.02,0.38,0.05,0.57,0.06c3.06,0.31,6.14-0.09,9.18-0.53
	c24.97-3.61,49.93-10.55,70.96-24.48c31.89-21.12,48.45-57.39,43.25-95.51c-1.59-11.63-6.39-23.21-15.3-30.85
	c-7.88-6.75-18.39-9.91-28.76-10.26s-20.66,1.91-30.57,4.97c-19.16,5.91-37.43,14.95-53.4,27.12
	c-14.59,11.12-29.59,25.31-34.56,43.57c-4.25,15.63-0.44,31.95,4.06,47.06c3.89,13.04,10.48,25.3,21.81,33.36
	C496.88,721.73,501.21,723.89,505.83,724.49z"/>
<path class="st5" d="M1154.41,765.04"/>
<g>
	<path class="st0" d="M1102.73,540.41c0,0-93.3,72.85-112.98,72.85c-16.52,0-67.79-71.29-67.79-71.29l-108.69,8.96
		c0,0-14.41-16.36-17.92-32.33C813.28,520.93,1102.73,540.41,1102.73,540.41z"/>
	<path class="st6" d="M951.49,582.99c10.6,12.35,22.99,25.22,30.99,29.91l25.43-81.05c-12.21-0.84-25.01-1.71-38.02-2.61
		L951.49,582.99z"/>
	<path class="st6" d="M840.23,550.78l12.37-1.02l8.59-28.12c-4.02-0.29-7.93-0.57-11.7-0.85L840.23,550.78z"/>
</g>
<path class="st7" d="M1123.7,543.41c-2,2.73-3.18,6.07-4.25,9.32c-18.39,55.41-27.83,113.77-27.85,172.15
	c-0.01,46.67,6.49,94.85,30.54,134.85c19.87,33.04,50.71,58.53,84.76,76.61c35.76,18.98,76.04,30.41,116.5,29.06
	c40.46-1.35,80.99-16.08,110.37-43.93c26.05-24.69,27.82-46.85,13.57-78.75c-13.22-29.6-35.65-54.39-58.92-76.5
	c-33.34-31.67-70.6-60.94-92.81-101.21c-21.43-38.86-26.8-85.65-17.98-129.14c-45.73-8.92-93.19-8.88-138.91,0.11
	c-4.73,0.93-9.69,2.08-13.21,5.38C1124.84,541.98,1124.24,542.67,1123.7,543.41z"/>
<path class="st8" d="M1273.84,495.68c0.2-0.55,0.31-1.31,0.4-2.4c0.28-3.4-0.98-7.57-1.41-10.96c-0.89-7.07-1.75-14.13-2.52-21.21
	c-6.09-55.26-8.25-114.12,15.42-165.87c0.93-2.04,1.91-4.07,2.92-6.07c13.31-26.47,33.14-49.31,45.85-76.07
	c11.57-24.36,16.92-51.65,15.4-78.57c-1.13-20.11-6.51-40.86-20.09-55.73c-14.02-15.35-34.89-22.49-55.33-26.27
	c-29.36-5.43-59.77-5.1-89.01,0.97c-24.53,5.09-48.25,14.16-73.14,17.11c-7.18,0.85-22.97,1.18-22.97,1.18
	c-8.47-2.51-14.03-10.37-21.24-15.48c-49.01-34.69-115.8-39.81-172.09-18.91c-21.81,8.1-42.79,20.25-56.99,38.69
	c-11.95,15.52-18.39,34.51-23.69,53.37c-10.25,36.5-16.95,75.53-6.94,112.09c2.09,7.64,4.92,15.33,4.25,23.22
	c-0.48,5.61-2.7,10.89-4.82,16.1c-22.32,54.8-36.28,115.39-23.65,173.19c0.86,3.95,1.92,8.02,4.48,11.16
	c3.34,4.08,8.64,5.9,13.68,7.47c106.99,33.36,220.29,41.59,332.36,40.75c30.17-0.23,60.46-1.12,90.35-5.59
	c14.99-2.24,29.94-5.31,44.43-9.8C1272.29,497.16,1273.35,497.03,1273.84,495.68z"/>
<path class="st5" d="M1356.21,895.95c-197.87,39.67-201.8-130.92-201.8-130.92"/>
<path class="st5" d="M1089.36,71.76c9.84,4.19,33.76,76.68,116.74,72.78"/>
<path class="st9" d="M853.04,390.73c-6.86,32.96,26.56,90.59,47.96,100.98s-32.2,6.23-60.77-9.87c0,0-0.52-122.58,52.98-151.15"/>
<path class="st9" d="M983.51,390.02c0,0-7.99,99.62,12,115.72c20,16.1-34.71,2.73-34.71,2.73
	c-26.79-55.71,63.02-189.33,63.02-189.33"/>
<path class="st9" d="M1122.9,346.27c0,0-14.9,31.32-27.71,66.94c-13.16,36.61-24.11,77.76-14.36,94.08c0,0,28.83,7.27,45.19,0
	c0,0-34.5-32.61-33.87-85.39"/>
<path class="st9" d="M1221.98,334.07c0,0.57-17.43,35.37-30.02,76.49c-10.51,34.34-17.64,73.08-8.42,99.97l33.18,3.15
	c0,0-27.92-24.91-23.28-107.85"/>
<path class="st10" d="M1277.25,535.34c0,0,12.47-7.27,11.43-22.85c-1.04-15.58-15.27-16.62-15.27-16.62s-151.99,20.78-240.81,7.79
	c0,0-195.82-18.18-245.17-36.88c-8.83,23.76-14.61,33.98,4.8,51.81C811.32,536.12,1218.03,572.74,1277.25,535.34z"/>
</svg>
